- 
http://www.Speed.Cd      fast  and The Hottest Private Tracker on the net

   signup is open now

Please Seed back to make the speed Faster!!!

------------------nfo--------------------------
-[IMG]http://img526.imageshack.us/img526/3322/alycemovieposter2011102.jpg[/IMG]


[color=blue][size=5][b]Alyce.2011.DVDRip.XVID.AC3-5.1.HQ.Hive-CM8[/b][/size][/color]


[b]Thx Hive

CM8 Doing It Right The First Time :D


Source: DVD-R

Encode:

Dvd quality was just ok not that sharp and a bit dark throughout. Movie looks weird.
Added brightness,sharpness,rgb and denoise.
still got nice
enjoy with 5.1 audio as a dvdrip should have

Video: 720x400 @bitrate 1800 2pass
Audio: English AC3 5.1 @448
Sample: yes included[/b]


[url]http://www.imdb.com/title/tt1680051/[/url]


General
Complete name                  : Alyce.2011.DVDRip.XVID.AC3.HQ.Hive-CM8.avi
Format                         : AVI
Format/Info                    : Audio Video Interleave
File size                      : 1.51 GiB
Duration                       : 1h 29mn
Overall bit rate               : 2 407 Kbps
Writing application            : Nandub v1.0rc2
Writing library                : Nandub build 1853/release

Video
ID                             : 0
Format                         : MPEG-4 Visual
Format profile                 : Advanced Simple@L5
Format settings, BVOP          : 2
Format settings, QPel          : Yes
Format settings, GMC           : No warppoints
Format settings, Matrix        : Default (H.263)
Muxing mode                    : Packed bitstream
Codec ID                       : XVID
Codec ID/Hint                  : XviD
Duration                       : 1h 29mn
Bit rate                       : 1 949 Kbps
Width                          : 720 pixels
Height                         : 400 pixels
Display aspect ratio           : 16:9
Frame rate                     : 25.000 fps
Color space                    : YUV
Chroma subsampling             : 4:2:0
Bit depth                      : 8 bits
Scan type                      : Progressive
Compression mode               : Lossy
Bits/(Pixel*Frame)             : 0.271
Stream size                    : 1.22 GiB (81%)
Writing library                : XviD 1.2.1 (UTC 2008-12-04)

Audio
ID                             : 1
Format                         : AC-3
Format/Info                    : Audio Coding 3
Mode extension                 : CM (complete main)
Codec ID                       : 2000
Duration                       : 1h 29mn
Bit rate mode                  : Constant
Bit rate                       : 448 Kbps
Channel(s)                     : 6 channels
Channel positions              : Front: L C R, Side: L R, LFE
Sampling rate                  : 48.0 KHz
Bit depth                      : 16 bits
Compression mode               : Lossy
Stream size                    : 288 MiB (19%)
Alignment                      : Split accross interleaves
Interleave, duration           : 40 ms (1.00 video frame)
Interleave, preload duration   : 500 ms


Plot:

After accidentally knocking her best friend off a roof, Alyce is haunted by guilt 
and delves into a brutal nightmare wonderland of sex, drugs and violence, 
her mind tearing itself apart along with anyone else who gets in her way.

Cast:

Jade Dornfeld (Everything Will Happen Before You Die) ... 	Alyce
Tamara Feldman (Hatchet, Gossip Girl)           ... 	        Carroll
James Duval (Donnie Darko, Doom Generation)      ... 	Vince
Eddie Rouse (Pandorum, Undertow)                ... 	Rex
Larry Cedar (The Crazies)                   ... 	Harold
Yorgo Constantine (Fast Five)             ... 	   Warner
Megan Gallagher (Millenium)               ... 	 Ginny
Rena Owen (Once Were Warriors             ... 	Danielle
Tracey Walter (Repo Man, Batman)         ... 	Landlord
Bret Roberts (Nightstalker)              ... 	Mike


[img]http://img402.imageshack.us/img402/9223/27924370.png[/img]
[img]http://img845.imageshack.us/img845/5448/alal.png[/img]
[img]http://img405.imageshack.us/img405/3511/alalal.png[/img]
[img]http://img3.imageshack.us/img3/8633/alalalal.png[/img]




Greetz

ViSiON,SPK,SiC,SANTi,3LT0N,FUSiON,YanKeeS,MAGNET,THC,T0XiC,LKRG,FANTASIA-PLAY,FANTASIA-M,FLAWL3SS,
WBZ,ZMG,BHRG,NOVA,D2U,Vik,Rapeseed,SAFC,goldadvance,MEMORY100,KaN1vE,Unevano,Pinnz,Wayne
Mr Hive,and all P2P groups
Great Work Guys :D


LOOKING FOR ANYTHING YOU WANT TO LOOK AND SOUND BETTER

CM8@hushmail.com